<?xml version="1.0" encoding="utf-8"?>
<!-- Generator: Adobe Illustrator 18.1.1, SVG Export Plug-In . SVG Version: 6.00 Build 0)  -->
<svg version="1.1" id="Layer_1" xmlns="http://www.w3.org/2000/svg" xmlns:xlink="http://www.w3.org/1999/xlink" x="0px" y="0px"
	 width="20px" height="20px" viewBox="0 0 20 20" style="enable-background:new 0 0 20 20;" xml:space="preserve">
<path style="fill:#1B2633;" d="M10,0.1c-5.4,0-9.9,4.4-9.9,9.9s4.4,9.9,9.9,9.9s9.9-4.4,9.9-9.9C19.9,4.6,15.5,0.1,10,0.1z
	 M18.1,9.5c-2.1-0.3-4.1-0.4-5.8-0.1c-0.2-0.5-0.4-0.9-0.6-1.4c1.9-0.8,3.4-1.9,4.6-3.4C17.3,6.1,18,7.7,18.1,9.5z M15,3.6
	c-1,1.3-2.4,2.3-4.1,3c-0.8-1.5-1.8-3-2.9-4.5C8.7,2,9.3,1.9,10,1.9C11.9,1.9,13.6,2.5,15,3.6L15,3.6z M6.4,2.7
	c1.1,1.4,2.1,2.9,2.9,4.4c-2,0.6-4.4,0.9-7.1,0.9C2.7,5.7,4.3,3.8,6.4,2.7z M1.9,10c0-0.1,0-0.1,0-0.2c3.2,0,5.9-0.4,8.2-1.1
	c0.2,0.4,0.4,0.8,0.5,1.2c-2.8,0.9-5.1,2.6-6.8,5.3C2.6,13.8,1.9,12,1.9,10z M5,16.4c1.6-2.5,3.7-4.2,6.2-5c0.8,2,1.3,4,1.7,6.1
	c-0.9,0.4-1.9,0.6-2.9,0.6C8.1,18.1,6.4,17.5,5,16.4z M14.5,16.8c-0.4-1.9-0.9-3.8-1.6-5.7c1.5-0.2,3.2-0.2,5.1,0.2
	C17.7,13.6,16.4,15.5,14.5,16.8z"/>
</svg>
