<?xml version="1.0" encoding="utf-8"?>
<!-- Generator: Adobe Illustrator 18.1.1, SVG Export Plug-In . SVG Version: 6.00 Build 0)  -->
<svg version="1.1" id="Layer_1" xmlns="http://www.w3.org/2000/svg" xmlns:xlink="http://www.w3.org/1999/xlink" x="0px" y="0px"
	 width="20px" height="20px" viewBox="0 0 20 20" style="enable-background:new 0 0 20 20;" xml:space="preserve">
<path style="fill:#1B2633;" d="M17.6,8.5h-1.7c0.1,0.5,0.2,1,0.2,1.5c0,3.4-2.7,6.1-6.1,6.1S3.9,13.4,3.9,10c0-0.5,0.1-1,0.2-1.5
	H2.4v8.4c0,0.4,0.3,0.8,0.8,0.8h13.7c0.4,0,0.8-0.3,0.8-0.8L17.6,8.5L17.6,8.5z M17.6,3.1c0-0.4-0.3-0.8-0.8-0.8h-2.3
	c-0.4,0-0.8,0.3-0.8,0.8v2.3c0,0.4,0.3,0.8,0.8,0.8h2.3c0.4,0,0.8-0.3,0.8-0.8V3.1z M10,6.2c-2.1,0-3.8,1.7-3.8,3.8s1.7,3.8,3.8,3.8
	s3.8-1.7,3.8-3.8S12.1,6.2,10,6.2z M17.6,19.9H2.4c-1.3,0-2.3-1-2.3-2.3V2.4c0-1.3,1-2.3,2.3-2.3h15.2c1.3,0,2.3,1,2.3,2.3v15.2
	C19.9,18.9,18.9,19.9,17.6,19.9z"/>
</svg>
