<?xml version="1.0" encoding="utf-8"?><svg width="60" height="60" viewBox="0 0 60 60" xmlns="http://www.w3.org/2000/svg" xmlns:xlink="http://www.w3.org/1999/xlink"><svg width="30" height="30" viewBox="-5 -5 30 30" id="dribbble"><path d="M10 .1C4.6.1.1 4.5.1 10s4.4 9.9 9.9 9.9 9.9-4.4 9.9-9.9c0-5.4-4.4-9.9-9.9-9.9zm8.1 9.4c-2.1-.3-4.1-.4-5.8-.1-.2-.5-.4-.9-.6-1.4 1.9-.8 3.4-1.9 4.6-3.4 1 1.5 1.7 3.1 1.8 4.9zM15 3.6c-1 1.3-2.4 2.3-4.1 3-.8-1.5-1.8-3-2.9-4.5.7-.1 1.3-.2 2-.2 1.9 0 3.6.6 5 1.7zm-8.6-.9c1.1 1.4 2.1 2.9 2.9 4.4-2 .6-4.4.9-7.1.9.5-2.3 2.1-4.2 4.2-5.3zM1.9 10v-.2c3.2 0 5.9-.4 8.2-1.1.2.4.4.8.5 1.2-2.8.9-5.1 2.6-6.8 5.3C2.6 13.8 1.9 12 1.9 10zM5 16.4c1.6-2.5 3.7-4.2 6.2-5 .8 2 1.3 4 1.7 6.1-.9.4-1.9.6-2.9.6-1.9 0-3.6-.6-5-1.7zm9.5.4c-.4-1.9-.9-3.8-1.6-5.7 1.5-.2 3.2-.2 5.1.2-.3 2.3-1.6 4.2-3.5 5.5z" fill="#1B2633"/></svg><svg width="30" height="30" viewBox="-5 -5 30 30" id="instagram" x="30"><path d="M17.6 8.5h-1.7c.1.5.2 1 .2 1.5 0 3.4-2.7 6.1-6.1 6.1S3.9 13.4 3.9 10c0-.5.1-1 .2-1.5H2.4v8.4c0 .4.3.8.8.8h13.7c.4 0 .8-.3.8-.8l-.1-8.4zm0-5.4c0-.4-.3-.8-.8-.8h-2.3c-.4 0-.8.3-.8.8v2.3c0 .4.3.8.8.8h2.3c.4 0 .8-.3.8-.8V3.1zM10 6.2c-2.1 0-3.8 1.7-3.8 3.8s1.7 3.8 3.8 3.8 3.8-1.7 3.8-3.8-1.7-3.8-3.8-3.8zm7.6 13.7H2.4c-1.3 0-2.3-1-2.3-2.3V2.4C.1 1.1 1.1.1 2.4.1h15.2c1.3 0 2.3 1 2.3 2.3v15.2c0 1.3-1 2.3-2.3 2.3z" fill="#1B2633"/></svg><svg width="30" height="30" viewBox="18 266 30 30" enable-background="new 23 271 20 20" id="twitter" y="30"><path d="M43 274.9c-.7.3-1.5.5-2.4.6.8-.5 1.5-1.3 1.8-2.3-.8.5-1.7.8-2.6 1-.7-.8-1.8-1.3-3-1.3-2.7 0-4.6 2.5-4 5-3.4-.2-6.4-1.8-8.5-4.3-1.1 1.8-.6 4.3 1.3 5.5-.7 0-1.3-.2-1.9-.5 0 1.9 1.3 3.7 3.3 4.1-.6.2-1.2.2-1.9.1.5 1.6 2 2.8 3.8 2.9-1.7 1.4-3.9 2-6.1 1.7 1.8 1.2 4 1.8 6.3 1.8 7.6 0 11.9-6.4 11.7-12.2 1-.5 1.7-1.2 2.2-2.1z" fill="#1B2633"/></svg></svg>